<?xml version="1.0" encoding="UTF-8" standalone="no"?>
<!-- Created with Inkscape (http://www.inkscape.org/) -->

<svg
   xmlns:dc="http://purl.org/dc/elements/1.1/"
   xmlns:cc="http://creativecommons.org/ns#"
   xmlns:rdf="http://www.w3.org/1999/02/22-rdf-syntax-ns#"
   xmlns:svg="http://www.w3.org/2000/svg"
   xmlns="http://www.w3.org/2000/svg"
   xmlns:xlink="http://www.w3.org/1999/xlink"
   xmlns:sodipodi="http://sodipodi.sourceforge.net/DTD/sodipodi-0.dtd"
   xmlns:inkscape="http://www.inkscape.org/namespaces/inkscape"
   version="1.1"
   id="svg823"
   width="512"
   height="512"
   viewBox="0 0 512 512"
   sodipodi:docname="18.svg"
   inkscape:version="0.92.4 (5da689c313, 2019-01-14)">
  <metadata
     id="metadata829">
    <rdf:RDF>
      <cc:Work
         rdf:about="">
        <dc:format>image/svg+xml</dc:format>
        <dc:type
           rdf:resource="http://purl.org/dc/dcmitype/StillImage" />
        <dc:title></dc:title>
      </cc:Work>
    </rdf:RDF>
  </metadata>
  <defs
     id="defs827" />
  <sodipodi:namedview
     pagecolor="#ffffff"
     bordercolor="#666666"
     borderopacity="1"
     objecttolerance="10"
     gridtolerance="10"
     guidetolerance="10"
     inkscape:pageopacity="0"
     inkscape:pageshadow="2"
     inkscape:window-width="1920"
     inkscape:window-height="1017"
     id="namedview825"
     showgrid="true"
     showborder="false"
     inkscape:zoom="0.921875"
     inkscape:cx="123.13179"
     inkscape:cy="222.08782"
     inkscape:window-x="-8"
     inkscape:window-y="-8"
     inkscape:window-maximized="1"
     inkscape:current-layer="layer64">
    <inkscape:grid
       type="xygrid"
       id="grid837" />
  </sodipodi:namedview>
  <g
     inkscape:groupmode="layer"
     id="layer62"
     inkscape:label="Layer 1"
     style="display:none">
    <image
       sodipodi:absref="E:\OneDrive\OneDrive - Hogeschool West-Vlaanderen\C++_2\07_ErrorHandling_MiniGame5_Lab\1DAE18_07_huysmans_marnick\Huysmans_Marnick_TheLegendOfZelda\Huysmans_Marnick_TheLegendOfZelda\Resources\LightWorld\0\18\18.png"
       xlink:href="18.png"
       y="0"
       x="0"
       id="image831"
       style="image-rendering:optimizeSpeed"
       preserveAspectRatio="none"
       height="512"
       width="512" />
  </g>
  <g
     inkscape:groupmode="layer"
     id="layer63"
     inkscape:label="Layer 2"
     style="display:none">
    <image
       sodipodi:absref="E:\OneDrive\OneDrive - Hogeschool West-Vlaanderen\C++_2\07_ErrorHandling_MiniGame5_Lab\1DAE18_07_huysmans_marnick\Huysmans_Marnick_TheLegendOfZelda\Huysmans_Marnick_TheLegendOfZelda\Resources\LightWorld\0\18\18SVG.png"
       xlink:href="18SVG.png"
       width="512"
       height="512"
       preserveAspectRatio="none"
       style="image-rendering:optimizeSpeed"
       id="image847"
       x="0"
       y="0" />
  </g>
  <g
     inkscape:groupmode="layer"
     id="layer64"
     inkscape:label="Layer 3">
    <path
       style="fill:none;stroke:#000000;stroke-width:1px;stroke-linecap:butt;stroke-linejoin:miter;stroke-opacity:1"
       d="M 450,512 V 270 l 32,-32 V 66 L 454,38 H 374 L 354,18 V 0 H 0 v 80 h 8 v 32 h 16 v 16 h 16 v -16 h 16 v 16 h 32 v -16 h 40 V 64 h 40 v 16 h 16 V 64 h 16 V 32 h 16 v 32 h 16 v 16 h 16 V 64 h 56 v 72 h -16 v 248 h 16 v 56 h -16 v 72 h 32 v -16 h 16 V 360 H 320 V 192 h 16 V 80 h 40 v 48 h 48 V 80 h 16 v 128 h -16 v 16 h -32 v 16 h 16 v 80 h -16 v 16 h 16 v 176 z"
       id="path851" />
    <path
       style="fill:none;stroke:#000000;stroke-width:1px;stroke-linecap:butt;stroke-linejoin:miter;stroke-opacity:1"
       d="m 272,512 v -72 h -16 v -56 h 16 V 136 H 144 v 80 H 64 V 184 H 0 v 56 h 8 v 32 h 16 v 32 h 16 v -32 h 16 v 16 h 8 V 400 H 88 V 272 h 32 v 16 h 32 v -16 h 8 v 16 h 32 v -16 h -16 v -80 h 16 v 48 h 8 v -40 h 16 v 40 h 8 v -48 h 16 v 80 h -16 v 16 h 16 v 72 h -16 v 136 h 16 v 16 z"
       id="path853" />
    <path
       style="fill:none;stroke:#000000;stroke-width:1px;stroke-linecap:butt;stroke-linejoin:miter;stroke-opacity:1"
       d="m 120,384 h 48 v -72 h -48 z"
       id="path855" />
    <path
       style="fill:none;stroke:#000000;stroke-width:1px;stroke-linecap:butt;stroke-linejoin:miter;stroke-opacity:1"
       d="m 96,496 h 24 v -8 h 16 v -24 h -16 v -8 h 16 V 432 H 120 V 416 H 96 Z"
       id="path857" />
    <path
       style="fill:none;stroke:#000000;stroke-width:1px;stroke-linecap:butt;stroke-linejoin:miter;stroke-opacity:1"
       d="m 192,496 v -80 h -24 v 16 h -16 v 24 h 16 v 8 h -16 v 24 h 16 v 8 z"
       id="path859" />
  </g>
</svg>
