<?xml version="1.0" encoding="UTF-8" standalone="no"?>
<!-- Created with Inkscape (http://www.inkscape.org/) -->

<svg
   xmlns:dc="http://purl.org/dc/elements/1.1/"
   xmlns:cc="http://creativecommons.org/ns#"
   xmlns:rdf="http://www.w3.org/1999/02/22-rdf-syntax-ns#"
   xmlns:svg="http://www.w3.org/2000/svg"
   xmlns="http://www.w3.org/2000/svg"
   xmlns:xlink="http://www.w3.org/1999/xlink"
   xmlns:sodipodi="http://sodipodi.sourceforge.net/DTD/sodipodi-0.dtd"
   xmlns:inkscape="http://www.inkscape.org/namespaces/inkscape"
   version="1.1"
   id="svg735"
   width="512"
   height="512"
   viewBox="0 0 512 512"
   sodipodi:docname="17.svg"
   inkscape:version="0.92.4 (5da689c313, 2019-01-14)">
  <metadata
     id="metadata741">
    <rdf:RDF>
      <cc:Work
         rdf:about="">
        <dc:format>image/svg+xml</dc:format>
        <dc:type
           rdf:resource="http://purl.org/dc/dcmitype/StillImage" />
        <dc:title></dc:title>
      </cc:Work>
    </rdf:RDF>
  </metadata>
  <defs
     id="defs739" />
  <sodipodi:namedview
     pagecolor="#ffffff"
     bordercolor="#666666"
     borderopacity="1"
     objecttolerance="10"
     gridtolerance="10"
     guidetolerance="10"
     inkscape:pageopacity="0"
     inkscape:pageshadow="2"
     inkscape:window-width="1920"
     inkscape:window-height="1017"
     id="namedview737"
     showgrid="true"
     showborder="false"
     inkscape:zoom="0.65186406"
     inkscape:cx="278.33053"
     inkscape:cy="224.66134"
     inkscape:window-x="-8"
     inkscape:window-y="-8"
     inkscape:window-maximized="1"
     inkscape:current-layer="layer61">
    <inkscape:grid
       type="xygrid"
       id="grid749" />
  </sodipodi:namedview>
  <g
     inkscape:groupmode="layer"
     id="layer59"
     inkscape:label="Layer 1"
     style="display:none">
    <image
       sodipodi:absref="E:\OneDrive\OneDrive - Hogeschool West-Vlaanderen\C++_2\07_ErrorHandling_MiniGame5_Lab\1DAE18_07_huysmans_marnick\Huysmans_Marnick_TheLegendOfZelda\Huysmans_Marnick_TheLegendOfZelda\Resources\LightWorld\0\17\17.png"
       xlink:href="17.png"
       y="0"
       x="0"
       id="image743"
       style="image-rendering:optimizeSpeed"
       preserveAspectRatio="none"
       height="512"
       width="512" />
  </g>
  <g
     inkscape:groupmode="layer"
     id="layer60"
     inkscape:label="Layer 2"
     style="display:none">
    <image
       sodipodi:absref="E:\OneDrive\OneDrive - Hogeschool West-Vlaanderen\C++_2\07_ErrorHandling_MiniGame5_Lab\1DAE18_07_huysmans_marnick\Huysmans_Marnick_TheLegendOfZelda\Huysmans_Marnick_TheLegendOfZelda\Resources\LightWorld\0\17\17SVG.png"
       xlink:href="17SVG.png"
       width="512"
       height="512"
       preserveAspectRatio="none"
       style="image-rendering:optimizeSpeed"
       id="image759"
       x="0"
       y="0" />
  </g>
  <g
     inkscape:groupmode="layer"
     id="layer61"
     inkscape:label="Layer 3">
    <path
       style="fill:none;stroke:#000000;stroke-width:1px;stroke-linecap:butt;stroke-linejoin:miter;stroke-opacity:1"
       d="M 88,512 V 384 h -8 v -4 L 33,333 H 0 v 53 h 34 l 12,12 v 114 z"
       id="path763" />
    <path
       style="fill:none;stroke:#000000;stroke-width:1px;stroke-linecap:butt;stroke-linejoin:miter;stroke-opacity:1"
       d="m 0,293 h 34 l 46,-46 v -23 h 8 V 80 h 24 8 v 48 h 48 V 80 h 8 v 112 h 16 v 168 h -16 v 136 h 16 v 16 h 32 v -72 h -16 v -56 h 16 V 136 H 208 V 64 h 56 v 16 h 16 V 64 h 16 V 32 h 16 v 32 h 16 v 16 h 16 V 64 h 40 v 48 h 40 v 16 h 32 v -16 h 16 v 16 h 16 v -16 h 16 V 80 h 8 V 0 H 176 v 35 l -3,3 H 74 L 46,66 V 242 L 26,262 H 0 Z"
       id="path765" />
    <path
       style="fill:none;stroke:#000000;stroke-width:1px;stroke-linecap:butt;stroke-linejoin:miter;stroke-opacity:1"
       d="m 240,512 v -72 h 16 V 384 H 240 V 136 h 56 v 24 h 16 v -24 h 56 v 80 h 80 v -32 h 64 v 56 h -8 v 32 h -16 v 32 h -16 v -32 h -16 v 16 h -32 v -16 h -32 v 16 h -32 v -16 h -24 v -80 h -64 v 168 h 16 v 136 h -16 v 16 z"
       id="path767" />
    <path
       style="fill:none;stroke:#000000;stroke-width:1px;stroke-linecap:butt;stroke-linejoin:miter;stroke-opacity:1"
       d="m 336,512 v -16 h 16 v 16 z"
       id="path769" />
    <path
       style="fill:none;stroke:#000000;stroke-width:1px;stroke-linecap:butt;stroke-linejoin:miter;stroke-opacity:1"
       d="m 424,512 h 24 v -48 h -24 z"
       id="path771" />
    <path
       style="fill:none;stroke:#000000;stroke-width:1px;stroke-linecap:butt;stroke-linejoin:miter;stroke-opacity:1"
       d="m 424,448 h 24 v -48 h -24 z"
       id="path773" />
    <path
       style="fill:none;stroke:#000000;stroke-width:1px;stroke-linecap:butt;stroke-linejoin:miter;stroke-opacity:1"
       d="m 424,384 h 24 v -80 h -24 z"
       id="path775" />
    <path
       style="fill:none;stroke:#000000;stroke-width:1px;stroke-linecap:butt;stroke-linejoin:miter;stroke-opacity:1"
       d="m 344,384 h 48 v -72 h -48 z"
       id="path777" />
    <path
       style="fill:none;stroke:#000000;stroke-width:1px;stroke-linecap:butt;stroke-linejoin:miter;stroke-opacity:1"
       d="m 384,512 v -16 h 16 v 16 z"
       id="path779" />
    <path
       style="fill:none;stroke:#000000;stroke-width:1px;stroke-linecap:butt;stroke-linejoin:miter;stroke-opacity:1"
       d="m 384,488 h 16 v -24 h -16 z"
       id="path781" />
    <path
       style="fill:none;stroke:#000000;stroke-width:1px;stroke-linecap:butt;stroke-linejoin:miter;stroke-opacity:1"
       d="m 336,488 h 16 v -24 h -16 z"
       id="path783" />
    <path
       style="fill:none;stroke:#000000;stroke-width:1px;stroke-linecap:butt;stroke-linejoin:miter;stroke-opacity:1"
       d="m 384,456 h 16 v -24 h -16 z"
       id="path785" />
    <path
       style="fill:none;stroke:#000000;stroke-width:1px;stroke-linecap:butt;stroke-linejoin:miter;stroke-opacity:1"
       d="m 336,456 h 16 v -24 h -16 z"
       id="path787" />
    <path
       style="fill:none;stroke:#000000;stroke-width:1px;stroke-linecap:butt;stroke-linejoin:miter;stroke-opacity:1"
       d="m 336,424 h 16 v -24 h -16 z"
       id="path789" />
    <path
       style="fill:none;stroke:#000000;stroke-width:1px;stroke-linecap:butt;stroke-linejoin:miter;stroke-opacity:1"
       d="m 384,424 h 16 v -24 h -16 z"
       id="path791" />
  </g>
</svg>
