<?xml version="1.0" encoding="UTF-8" standalone="no"?>
<!-- Created with Inkscape (http://www.inkscape.org/) -->

<svg
   xmlns:dc="http://purl.org/dc/elements/1.1/"
   xmlns:cc="http://creativecommons.org/ns#"
   xmlns:rdf="http://www.w3.org/1999/02/22-rdf-syntax-ns#"
   xmlns:svg="http://www.w3.org/2000/svg"
   xmlns="http://www.w3.org/2000/svg"
   xmlns:xlink="http://www.w3.org/1999/xlink"
   xmlns:sodipodi="http://sodipodi.sourceforge.net/DTD/sodipodi-0.dtd"
   xmlns:inkscape="http://www.inkscape.org/namespaces/inkscape"
   version="1.1"
   id="svg465"
   width="512"
   height="512"
   viewBox="0 0 512 512"
   sodipodi:docname="0.svg"
   inkscape:version="0.92.4 (5da689c313, 2019-01-14)">
  <metadata
     id="metadata471">
    <rdf:RDF>
      <cc:Work
         rdf:about="">
        <dc:format>image/svg+xml</dc:format>
        <dc:type
           rdf:resource="http://purl.org/dc/dcmitype/StillImage" />
        <dc:title />
      </cc:Work>
    </rdf:RDF>
  </metadata>
  <defs
     id="defs469" />
  <sodipodi:namedview
     pagecolor="#ffffff"
     bordercolor="#666666"
     borderopacity="1"
     objecttolerance="10"
     gridtolerance="10"
     guidetolerance="10"
     inkscape:pageopacity="0"
     inkscape:pageshadow="2"
     inkscape:window-width="1920"
     inkscape:window-height="1017"
     id="namedview467"
     showgrid="true"
     showborder="false"
     inkscape:zoom="0.921875"
     inkscape:cx="118.84029"
     inkscape:cy="265.44732"
     inkscape:window-x="-8"
     inkscape:window-y="-8"
     inkscape:window-maximized="1"
     inkscape:current-layer="layer36">
    <inkscape:grid
       type="xygrid"
       id="grid478" />
  </sodipodi:namedview>
  <g
     inkscape:groupmode="layer"
     id="layer35"
     inkscape:label="Layer 1"
     style="display:none">
    <image
       sodipodi:absref="E:\OneDrive\OneDrive - Hogeschool West-Vlaanderen\C++_2\07_ErrorHandling_MiniGame5_Lab\1DAE18_07_huysmans_marnick\Huysmans_Marnick_TheLegendOfZelda\Huysmans_Marnick_TheLegendOfZelda\Resources\HyruleCastle\4\0\0.png"
       xlink:href="0.png"
       width="512"
       height="512"
       preserveAspectRatio="none"
       style="image-rendering:optimizeSpeed"
       id="image473"
       x="0"
       y="0" />
  </g>
  <g
     inkscape:groupmode="layer"
     id="layer36"
     inkscape:label="Layer 2">
    <path
       style="fill:none;stroke:#000000;stroke-width:1px;stroke-linecap:butt;stroke-linejoin:miter;stroke-opacity:1"
       d="m 192,448 h 56 v 32 h 16 v -32 h 56 v -24 h 64 v -56 h -88 v -32 h -24 v 8 h -8 v -32 h 8 v -8 h 24 v -32 h 16 v 32 h 16 v 40 h 56 v -8 h 32 v 32 h -8 v 32 h 8 v 32 h -88 v 40 h 112 v 40 H 0 V 0 H 512 V 472 H 440 V 312 h -80 v -40 h -8 V 112 h 8 V 88 H 328 V 56 h -8 v 88 h -48 v -16 h 8 v 8 h 32 V 56 H 264 V 24 h -16 v 32 h -48 v 80 h 32 v -8 h 8 v 16 H 192 V 56 h -8 v 32 h -32 v 24 h 8 v 160 h -8 v 40 H 72 V 472 H 184 V 432 H 96 v -32 h 8 v -32 h -8 v -32 h 32 v 8 h 56 v -40 h 16 v -32 h 16 v 32 h 24 v 8 h 8 v 32 h -8 v -8 h -24 v 32 h -88 v 56 h 64 z"
       id="path480" />
    <path
       style="fill:none;stroke:#000000;stroke-width:1px;stroke-linecap:butt;stroke-linejoin:miter;stroke-opacity:1"
       d="m 200,256 h 16 v -32 h -16 z"
       id="path482" />
    <path
       style="fill:none;stroke:#000000;stroke-width:1px;stroke-linecap:butt;stroke-linejoin:miter;stroke-opacity:1"
       d="m 296,256 h 16 v -32 h -16 z"
       id="path484" />
    <path
       style="fill:none;stroke:#000000;stroke-width:1px;stroke-linecap:butt;stroke-linejoin:miter;stroke-opacity:1"
       d="m 296,208 h 16 v -32 h -16 z"
       id="path486" />
    <path
       style="fill:none;stroke:#000000;stroke-width:1px;stroke-linecap:butt;stroke-linejoin:miter;stroke-opacity:1"
       d="m 200,208 h 16 v -32 h -16 z"
       id="path488" />
    <path
       style="fill:none;stroke:#000000;stroke-width:1px;stroke-linecap:butt;stroke-linejoin:miter;stroke-opacity:1"
       d="m 208,120 h 32 V 88 h -32 z"
       id="path490" />
    <path
       style="fill:none;stroke:#000000;stroke-width:1px;stroke-linecap:butt;stroke-linejoin:miter;stroke-opacity:1"
       d="m 272,120 h 32 V 88 h -32 z"
       id="path492" />
  </g>
</svg>
