<?xml version="1.0" encoding="UTF-8" standalone="no"?>
<!-- Created with Inkscape (http://www.inkscape.org/) -->

<svg
   xmlns:dc="http://purl.org/dc/elements/1.1/"
   xmlns:cc="http://creativecommons.org/ns#"
   xmlns:rdf="http://www.w3.org/1999/02/22-rdf-syntax-ns#"
   xmlns:svg="http://www.w3.org/2000/svg"
   xmlns="http://www.w3.org/2000/svg"
   xmlns:xlink="http://www.w3.org/1999/xlink"
   xmlns:sodipodi="http://sodipodi.sourceforge.net/DTD/sodipodi-0.dtd"
   xmlns:inkscape="http://www.inkscape.org/namespaces/inkscape"
   version="1.1"
   id="svg343"
   width="512"
   height="512"
   viewBox="0 0 512 512"
   sodipodi:docname="4.svg"
   inkscape:version="0.92.4 (5da689c313, 2019-01-14)">
  <metadata
     id="metadata349">
    <rdf:RDF>
      <cc:Work
         rdf:about="">
        <dc:format>image/svg+xml</dc:format>
        <dc:type
           rdf:resource="http://purl.org/dc/dcmitype/StillImage" />
        <dc:title />
      </cc:Work>
    </rdf:RDF>
  </metadata>
  <defs
     id="defs347" />
  <sodipodi:namedview
     pagecolor="#ffffff"
     bordercolor="#666666"
     borderopacity="1"
     objecttolerance="10"
     gridtolerance="10"
     guidetolerance="10"
     inkscape:pageopacity="0"
     inkscape:pageshadow="2"
     inkscape:window-width="1920"
     inkscape:window-height="1017"
     id="namedview345"
     showgrid="true"
     showborder="false"
     inkscape:zoom="0.92187498"
     inkscape:cx="56.558066"
     inkscape:cy="221.1485"
     inkscape:window-x="-8"
     inkscape:window-y="-8"
     inkscape:window-maximized="1"
     inkscape:current-layer="layer32">
    <inkscape:grid
       type="xygrid"
       id="grid356" />
  </sodipodi:namedview>
  <g
     inkscape:groupmode="layer"
     id="layer31"
     inkscape:label="Layer 1"
     style="display:none">
    <image
       sodipodi:absref="E:\OneDrive\OneDrive - Hogeschool West-Vlaanderen\C++_2\07_ErrorHandling_MiniGame5_Lab\1DAE18_07_huysmans_marnick\Huysmans_Marnick_TheLegendOfZelda\Huysmans_Marnick_TheLegendOfZelda\Resources\HyruleCastle\3\4\4.png"
       xlink:href="4.png"
       width="512"
       height="512"
       preserveAspectRatio="none"
       style="image-rendering:optimizeSpeed"
       id="image351"
       x="0"
       y="0" />
  </g>
  <g
     inkscape:groupmode="layer"
     id="layer32"
     inkscape:label="Layer 2">
    <path
       style="fill:none;stroke:#000000;stroke-width:1px;stroke-linecap:butt;stroke-linejoin:miter;stroke-opacity:1"
       d="m 248,24 v 32 h -40 v 8 h -16 v -8 h -32 v 8 h -16 v -8 h -32 v 8 H 96 v -7 l -55,55 h -1 v 16 H 8 v 16 h 32 v 8 h 40 v 8 h 8 v 32 h -8 v -8 H 64 v 72 H 32 v 16 h 32 v 32 h 2 l 30,30 v 2 h 80 v 112 h 72 v 32 h 16 v -32 h 72 v 64 H 0 V 0 H 512 V 448 H 336 V 336 h 80 v -2 l 30,-30 h 2 v -32 h 32 v -16 h -32 v -72 h -16 v 8 h -8 v -32 h 8 v -8 h 40 v -40 h -1 L 416,57 v 7 h -16 v -8 h -32 v 8 h -16 v -8 h -32 v 8 H 304 V 56 H 264 V 24 Z"
       id="path122" />
    <path
       style="fill:none;stroke:#000000;stroke-width:1px;stroke-linecap:butt;stroke-linejoin:miter;stroke-opacity:1"
       d="m 112,80 h 64 v 8 h 32 v -8 h 32 v 8 h 8 v 32 h -8 v 24 h -32 v -32 h -64 v 72 h -32 v 8 h -8 v -32 h 8 z"
       id="path120" />
    <path
       style="fill:none;stroke:#000000;stroke-width:1px;stroke-linecap:butt;stroke-linejoin:miter;stroke-opacity:1"
       d="m 272,80 h 32 v 8 h 32 v -8 h 64 v 80 h 8 v 32 h -8 v -8 h -32 v -72 h -64 v 32 h -32 v -24 h -8 V 88 h 8 z"
       id="path358" />
    <path
       style="fill:none;stroke:#000000;stroke-width:1px;stroke-linecap:butt;stroke-linejoin:miter;stroke-opacity:1"
       d="m 176,208 h 32 v -32 h -32 z"
       id="path32" />
    <path
       style="fill:none;stroke:#000000;stroke-width:1px;stroke-linecap:butt;stroke-linejoin:miter;stroke-opacity:1"
       d="m 304,208 h 32 v -32 h -32 z"
       id="path34" />
    <path
       style="fill:none;stroke:#000000;stroke-width:1px;stroke-linecap:butt;stroke-linejoin:miter;stroke-opacity:1"
       d="m 400,256 h 16 v -32 h -16 z"
       id="path36" />
    <path
       style="fill:none;stroke:#000000;stroke-width:1px;stroke-linecap:butt;stroke-linejoin:miter;stroke-opacity:1"
       d="m 384,256 v -32 h -16 v 32 z"
       id="path38" />
    <path
       style="fill:none;stroke:#000000;stroke-width:1px;stroke-linecap:butt;stroke-linejoin:miter;stroke-opacity:1"
       d="m 352,224 h -16 v 32 h 16 z"
       id="path40" />
    <path
       style="fill:none;stroke:#000000;stroke-width:1px;stroke-linecap:butt;stroke-linejoin:miter;stroke-opacity:1"
       d="m 176,256 v -32 h -16 v 32 z"
       id="path42" />
    <path
       style="fill:none;stroke:#000000;stroke-width:1px;stroke-linecap:butt;stroke-linejoin:miter;stroke-opacity:1"
       d="m 144,256 v -32 h -16 v 32 z"
       id="path44" />
    <path
       style="fill:none;stroke:#000000;stroke-width:1px;stroke-linecap:butt;stroke-linejoin:miter;stroke-opacity:1"
       d="M 112,256 V 224 H 96 v 32 z"
       id="path46" />
    <path
       style="fill:none;stroke:#000000;stroke-width:1px;stroke-linecap:butt;stroke-linejoin:miter;stroke-opacity:1"
       d="m 208,336 h 16 v -16 h -16 z"
       id="path48" />
    <path
       style="fill:none;stroke:#000000;stroke-width:1px;stroke-linecap:butt;stroke-linejoin:miter;stroke-opacity:1"
       d="m 288,336 h 16 v -16 h -16 z"
       id="path50" />
    <path
       style="fill:none;stroke:#000000;stroke-width:1px;stroke-linecap:butt;stroke-linejoin:miter;stroke-opacity:1"
       d="m 288,368 h 16 v -16 h -16 z"
       id="path52" />
    <path
       style="fill:none;stroke:#000000;stroke-width:1px;stroke-linecap:butt;stroke-linejoin:miter;stroke-opacity:1"
       d="m 224,368 v -16 h -16 v 16 z"
       id="path54" />
    <path
       style="fill:none;stroke:#000000;stroke-width:1px;stroke-linecap:butt;stroke-linejoin:miter;stroke-opacity:1"
       d="m 208,384 v 16 h 16 v -16 z"
       id="path56" />
    <path
       style="fill:none;stroke:#000000;stroke-width:1px;stroke-linecap:butt;stroke-linejoin:miter;stroke-opacity:1"
       d="m 208,416 v 16 h 16 v -16 z"
       id="path58" />
    <path
       style="fill:none;stroke:#000000;stroke-width:1px;stroke-linecap:butt;stroke-linejoin:miter;stroke-opacity:1"
       d="m 288,432 h 16 v -16 h -16 z"
       id="path60" />
    <path
       style="fill:none;stroke:#000000;stroke-width:1px;stroke-linecap:butt;stroke-linejoin:miter;stroke-opacity:1"
       d="m 288,400 h 16 v -16 h -16 z"
       id="path62" />
    <path
       style="fill:none;stroke:#000000;stroke-width:1px;stroke-linecap:butt;stroke-linejoin:miter;stroke-opacity:1"
       d="m 224,288 h 16 v -32 h -16 z"
       id="path64" />
    <path
       style="fill:none;stroke:#000000;stroke-width:1px;stroke-linecap:butt;stroke-linejoin:miter;stroke-opacity:1"
       d="m 272,288 h 16 v -32 h -16 z"
       id="path66" />
  </g>
</svg>
